<svg xmlns="http://www.w3.org/2000/svg" xmlns:xlink="http://www.w3.org/1999/xlink" viewBox="0 0 1504 736">
  <g id="mesh" class="g_to_interact_with" style="isolation: isolate">
    <path d="M1251,128c24.58.06,48.47,31.46,62,45,5.81,5.81,14.89,10.73,16,21,1.73,2.78-.16,6.65-1,10-5.32,3.23-9.34,5.48-14,8-8.86,4.78-19.47,9.11-28,13-3.08,1.4-5.66.13-8,2-.33,1-4.67,2-5,3,0,0-4.9.63-7,2-4,2.62-9.27,6.76-13.81,8a34.1,34.1,0,0,1-9.19,3c-22.43,11.15-46,24-69,34-8.53,3.72-22,10.31-33,10-21.56-.6-40-7.34-62-15-5.67-.67-11.33-2.33-17-3-17.49-6.16-38.32-11.65-56-18-14-5-27.24-5.64-40-12-1.33-1.33-5.67-1.67-7-3-3.33,0-6.67-2-10-2-2.24-.87-4.41-3.1-7-4-16.06-5.55-33.12-5.72-44-16v-2c10.9-6.61,30.18-6.61,44-10h16c10.06-2.44,24.47-4.25,35-6h37c3,1,5.65,4.49,8,6,5.45,3.51,12.4,3.66,18,7,1.93,1.15,3.29,4.56,5,6,4.52,3.83,15.64,8.06,21,10,4.67.33,7.33.67,12,1,.82.26,6.18,1.76,7,2,5.67-.33,10.33.33,16,0,13.1,0,25.09,2.1,36-2,2.84-1.07,13.87-4.94,17-6,6.76-2.28,13.39-3.73,19-7,13.92-8.12,23-21.8,32-35,3-4.35,8.69-9.05,11-14,1.78-2.31,1.48-3.89,3.59-7.36,1.06-2.23,1.45-4.63,3.41-6.64A225.89,225.89,0,0,0,1251,128Z"  fill-rule="evenodd"/>
    <path d="M700,203c1,0,3-1,4-1,3.38,4.37,5.64,6.69,9,11,1.47,1.88,3.64,4.82,5,7,3.94,6.32,14.41,13.32,19,20,4.48,6.51,7.49,13.61,13,19,4.56,4.47,10.69,8.29,15,13,6,6.56,9,13,15,19,1.23,1.24,4.55,4.93,6,6,4.16,3.09,5.57,8.13,9,12,8.42,9.51,33.56,31.38,35,45-2.24.59-2.66.75-4,2-16-3.71-28.59-13.53-42-19-8.12-3.31-14.12-6.67-21-10-4.57-2.22-9.09-2.46-13-5s-7.85-4.62-12-7a35.93,35.93,0,0,0-8-3c-5.27-1.54-10-3.64-16-6-3.66-1.43-7.6-5.29-11-7-10.64-5.33-26.06-11.21-37-15-15-5.21-28.46-9.66-44-14-7.93-2.22-16.06-2-18-10-.8-1-.35-.27-1-2,1.8-1.07,3.2-3.13,5-4,1.33,0,2.67-1,4-1a64.75,64.75,0,0,1,8-6c3.16-1.93,6.37-5.69,9-8a66.79,66.79,0,0,1,7-5c5.93-3.81,10.65-5.56,17-9,4.94-2.68,9.57-7.51,15-10C671.84,213.24,700,203,700,203Z" fill-rule="evenodd"/>
    <path d="M510,255h2v1C510.25,255.37,511,255.81,510,255Z" fill-rule="evenodd"/>
    <path d="M638,410c-16.43-.14-35.15-16.26-47-23-29.41-16.71-59.15-33.93-90-50-9.07-4.72-40.59-11.4-43-20,3.42-2.53,4.64-7.68,8-10,6.6-4.56,12.37-2.61,22-5,17.85-4.43,41.14-16.69,62-13,6.76,10.94,14.89,18.79,23,28,2.9,3.29,3.16,8.65,6,12,3.6,4.24,8,7.22,11,12,1.42,2.27,5.68,7.2,7,9,.62.85,6.27,8.92,7,10a59.57,59.57,0,0,1,4,5C619.52,378.07,630.84,388.85,638,410Z" fill-rule="evenodd"/>
    <path d="M854,288c18.35-.35,36.84.29,52,4,12.23,3,22.75-.91,34,2,35.13,9.1,69.42,22.56,106,31a10.92,10.92,0,0,0,2,3c-.63,1.75-.19,1-1,2-5.5,7.47-32.57,13-43,17-3.19,1.21-8.11,3.73-11,5-3.67.67-6.33,2.33-10,3-9.76,4.47-17.61,7.12-29,11-5,1.72-14,7.92-23,5-4.27-1.39-6.72-6-10-8-7-4.33-13.32-8.6-18-15-1.13-1.55-.75-3.6-2-5-5.7-6.41-14.19-11.66-20-18-9.37-10.23-17.07-21.38-27-31Z"  fill-rule="evenodd"/>
    <path d="M467,446c-26.28.59-70.24-7.69-83-20,1.17-5.54,3.42-7.83,4-14-11.24-10.16-28.51-16.21-43-23l-11-2c-2.33-1.15-5.17-4.87-8-6-3.32-1.33-5.34-.35-8-2-1-.6-2.19-3.49-3-4-4-2.51-8.67-1.09-13-3-4.92-2.17-13-6.45-18-8-14.76-4.57-27.25,3.95-37,7-7.83,2.45-8.87-3.19-12-5-.92-.53-5.87.2-9-1-6.51-2.49-11.35-7.6-16-12l1-1c10.46-7.59,40.06-4.21,55-8,9.42-2.39,22.59-5.58,32-8l12-1c22-7.78,43.58-12.75,74-13,9.35,18.05,20.78,31.5,32,47,1.42,2,1.33,5.26,3,7l4,1c2.27,2.28,2.13,6.25,4,9l12,12c2.8,4.42,2.23,9.56,5,14C450.82,422.92,466.14,429.17,467,446Z"  fill-rule="evenodd"/>
    <path d="M672,362c17.38-.35,30.32,4.34,44,8,3.33.33,5.67,1.67,9,2,4.48,1.73,9.09,1.31,13,3,7.33,1,12.78,5.71,20,8,2.4.9,5.58,3.14,8,4,2,0,9,5,11,5,4.24,2.07,7.75,3.27,12,6,3.87,2.48,9.31,3.92,14,6,3.17,1.41,7.6,3.73,10,6,0,2.67-4.34,3.44-9,5-17.76,4.52-32.78,7.09-48,11-2.67,0-5.33,2-8,2-4.08,1-15.12,5.45-20,4-4,.08-6.33.67-9-2-2.74-1.31-4.81-4.34-7-7-4.38-5.31-7.55-11.72-11-18s-9.93-11.4-14-17c-1.13-1.55-.75-3.59-2-5C679,376.27,673,374.35,672,362Z"  fill-rule="evenodd"/>
    <path d="M590,440c2.19,1.38,2.63,1.59,5,3,1.61.89.79.69,5,3l-1,1c-13.08,4.82-35.24,2.52-45,2-5.88-.31-14.71.77-19-2-7.23-2.59-5.72-5-9-10-2.93-4.45-7.83-8.56-11-13-2.67-5-5.33-9-8-14-3.51-3.79-7-6.16-9-12l1-1c11.72,2,30.6,8.43,42,15,5.46,3.15,8.51,5.79,13,8,3.37,1.61,7.79,5.26,13,7a61.8,61.8,0,0,1,6,3c2.29,1,3.1,2.26,7,4a12,12,0,0,0,3,2c1.18.86,2.88,1.89,3,2A21.42,21.42,0,0,1,590,440Z" fill-rule="evenodd"/>
  </g>
  <g id="sole2" class="g_to_interact_with" style="isolation: isolate">
    <path d="M1148,618c-20.89.21-36.12.73-54-2h-15c-13.09,0-29,.57-39-2-12.21-3.13-20.69-2.5-29-6a45.5,45.5,0,0,1-13-9c-3-3-8.94-8-12-11-5-4.84-9.8-10.37-15-15a434.73,434.73,0,0,0-35-28c-6.83-4.9-15.2-10.26-24-13-18-5.62-48.15-3.94-64,0-6,0-12,2-18,2-12.15,3.07-31.29,4.75-44,7-.34.2-14.33,1-19,1-12.5,1-19.39,1-33,4-14.16,3.14-65.83,11.07-98,17-15.65,2.88-30.28,3.79-46,6-7.33,0-14.67,1-22,1-7.73,1.9-20.21,2.39-29,3-19,0-38,1-57,1-30.51,0-65.17.61-92-4-6-.72-7.3-.47-14-1-10.91-3.22-24.92-4.23-36-7-4.67,0-10.33-2-15-2-6-1.45-19.43-1.42-29,0-13.7,2-26.52,11.79-32,22-.55,5.75,0,5.67,0,9,2.74,1.71,5.85,1.61,7,5-.67,0-1.31,3.51-3,3-4.47,2.6-11.56-2.26-15-4-6.5-3.29-13.16-6.16-18-11-7.69-7.69-9.56-11.37-21-17-8.26-4.06-20.7-5-28-12,13.73-9.7,15.61-25.14,40-25,15.06,10.22,48.37,9.66,69,15,5.33,0,11.67,1,17,1,21.75,5.41,44.35,6.48,66,11,3.5.73,10.64.75,13,1,4.32.45,11.52,1.16,15,2,5.15,1.25,9.11-.43,13,0,13,1.45,33.06-.23,42-1,14.18-1.23,23.62,1.76,33,0,8.33,0,16.67-1,25-1,17,0,22.93-1.9,39-5,10.68-.9,18.33-1,25-1,10.53-.53,25.5-1.53,35-4,4,0,8-1,12-1,11.55-3,27.48-3.74,40-7,8.73-2.27,9.65-.69,17-4,1.49-.67,12.3-2.25,14-3,4-1.77,21.63-5.1,30-7,8.61-3.87,32.59-5.64,49-10,6.67-.67,17.33-3.33,24-4,42.93-11.15,80.49-19.73,124-31,6,0,16-1,22-1,5.39-1.37,12.34-3.53,18-5a67.93,67.93,0,0,1,17-2c6.48.13,11.94,1.09,17,1a103.11,103.11,0,0,0,24-3c18,0,36-1,54-1,12.31.36,40,1.44,54,4,14.76,2.7,28.81.33,45,2,8.86.91,23.12,0,31,2,6.67,0,13.33,1,20,1,10.48,1.34,24.57.82,36,2,9.42,1,24.79,2.39,34,0,4.67,0,9.33-1,14-1,32.65-7.17,45-10.4,69-35,7.43-7.62,12.31-21.26,23-27,1.24,3.61,1.07,9.88,1,15-2.47,3-10.76,23.19-10,25,2.22,6.49,13,19,6,30-6.71,19.26-38.72,19.33-49,33-1.34,1.68-1.64,4.14-2,7,5.33,11.51,18.57,35.71,19,50-5.73,3.48-12.73,6.28-19,9-7.15,3.1-12.63,4.67-19,8-12.85,6.71-24.11,12.38-42,15-3.33-9-32.46-28.35-42-34-22.21-13.15-42.5-32.78-75-43-13.33,0-24.19,0-38.67-.17-10,0-11.19-.93-20.33,2.17a13.91,13.91,0,0,0-5,15c1.42,5.33,5.83,12.73,8,17,6.38,12.58,12.42,21.48,20,33C1141.82,605.8,1147,609,1148,618Z" fill-rule="evenodd"/>
   <path d="M1282,522c-1.19.78-4.8 1,1.2-6,2-4,1.33-4.09,2.64-4,8,.8,1,.35.27,1,2,7.11,4.49,15.14,9.15,21,15,2.71,2.7,5.65,9.36,9,11h7c2.29-2.44,5.92-2.23,8-5,1.48-1.91,1.85-3.32,1-5-1.45-5.52-17.51-24.75-22-27C1293.49,521.25,1286.94,521.89,1282,522Z" fill-rule="evenodd"/>
    <path d="M1062,578c0-2.72,0-4.6-1-6-2-6.74-20.69-32.22-28-33-4.42-2.92-13.65-.29-19,0a14.17,14.17,0,0,0-1,4c1.07,1.34.92,3.42,2,5,3.56,5.21,11.69,8.29,16,13C1041.32,572.27,1038.94,578.24,1062,578Z" fill-rule="evenodd"/>
  </g>
  <g id="body" class="g_to_interact_with" style="isolation: isolate">
    <path d="M1254,130v-6c9.54-6.47,13.43-20.92,28-21,2,2.31,20.52,11.35,24,13,6,2.84,12.93,5.77,17,10,3.54,3.68,2,6.49,4,12,2.51,6.87,8.46,13.41,11,20,3,7.72,3.41,13.76,7,21,25.72,51.85,38.4,117.58,39,195-6.86,4.5-11.33,9.31-17,15-1.6,1.61-4.51,2.31-6,4-4.23,4.8-5.24,11.78-10,16-3.28,2.9-8.72,3.11-12,6-3.12,2.75-5.39,7.82-9,10-12.12,7.31-33.28,13.22-48,17-5.33,0-13.56,2-23,1-23.59,1.41-44.17-.27-63-5h-19c-1.64-.53-7.36-4.47-9-5-4.67,0-9.33,1-14,1-5.79-1.41-17.22-1.56-23-3-7.33,0-15.67-1-23-1-18.28-4.41-79.81-4.59-98,0-14.88,3.75-35.12-2.74-50,1-7.72,1.94-18.5,5.09-26,7H922c-9,2.28-19.71,5.79-28,8-10.58,2.82-19.73,5-30,7-43.35,8.56-64.48,26.58-98,29-11.63.84-15-3.48-32,1-37.18,9.77-72.1,19.39-110,29H610c-25.83,6.41-60.71,7.67-86,14-7.33,0-14.67,1-22,1-7.89,1.92-24.12,1-32,3-12.67,0-25.33,1-38,1-14.68,0-27.49-3-40-3-10.67,0-21.33-1-32-1-11.85-3-15.89-5.51-28-8-7-1.44-19.53,2.51-29,0-2.64-.7-8.64-.35-11-1-6.45-1.77-11.07-.94-18-1-4.13,0-10-2-14-3-3.33,0-6.67-2-10-2-5.43-1.81-11.26-4.28-18-6H207c-8.71-2.2-11.09-4.79-19-7-3.33-.33-8.67-1.67-12-2-8.91-3.88-18.47-10.37-28-14-16.14-6.16-32.73-7.08-48-14-6.79-3.07-12.13-9.17-18-13-6.8-4.44-18-3.79-21-12-2.43-4.09-.65-8.28-2-14-2.31-9.82-1.86-25.07,1-36s-.47-29.28,5-38c8.23-13.11,26.16-19.69,43-24,8.9-2.28,15.14-3.61,23-6,8.59-2.61,16.59-5.21,27-6,0,8.42-2.45,10.89-3,18l3,1c10.8,7.58,32.33,3,48,6,1.59,3.26,3.24,7.89,6,10,4.9,3.75,27,17.52,36,15,7.57-2.11,17.14-11.4,30-8,6,1.58,9.34,3.93,15,6,3.33.33,7.67,3.67,11,4,16.93,5.82,34.73,15.59,51,23,3,.33,6,2.67,9,3,5.76,2,19.94,6.86,23,12,3.53,5.93-3.59,11.85-2,16,3.17,8.49,10.24,5.93,19,9a194.73,194.73,0,0,0,64,11c-1.15-13.56-18.5-26.44-25-36-4.1-6-5.28-13.63-10-19a385.37,385.37,0,0,1-31-41c-5.73-8.56-15.29-17.56-18-29,7.66-2,14.47-1.87,23-2,2.11,4.89-.27,11.21,1,17,1.26.65,4.07,1.09,5,2,6-2,15,0,21-2,6.67,0,11.33-2,18-2a68.69,68.69,0,0,1,1-14c2.48-1.11,3.23-1.69,7-2,11.31,10.22,27.52,11.49,42,19,28.53,14.8,56.65,30.06,84,46,12.24,7.13,35.94,26.51,52,27-2.06-16.6-19.8-32.55-29-43-2.66-3-4.73-7.53-7-11-6.28-9.6-15.65-18.24-23-27-2.83-3.37-3.09-8.71-6-12-8.32-9.44-20.57-17.9-25-31h1c1.19-3.84,2.21-4.65,7-5,2.67-1.84,7.11-.66,10,0,3.51,5.9,13.39,23.33,19,26,1.47,1.12,3,2.09,4,1,8.86-4.32,18.09-11.44,25-18-.1-5.73-4.08-12.77-3-15-2.93-4.31-.83-3.84,2-5,7.17-4.45,40.29,10.36,46,13l11,2c9.35,4.09,20.73,10.35,30,14,5.23,2.06,8.77,1.63,14,4,22.28,10.1,45.33,23.13,67,34,8.74,4.39,15.72,5.82,25,10,4.73,2.13,10.63,7.9,16,9,6,1.23,6.5-2.14,7-7-3.83-3.1-4.73-8.32-8-12-.85-1-3.09-1.06-4-2-4.18-4.28-8-9.62-12-14-2.63-2.9-3.39-7.05-6-10-2.07-2.34-9-10.46-11-12-2.16-1.66-5.11-2.1-7-4-6.64-6.67-9.73-17-16-24-5.67-6.36-14-10-20-16-4.47-4.49-6.14-11.91-10-17-2.15-2.84-6.09-3.83-9-6-6.83-5.09-18.93-21.65-20-32,6.53.57,15.35,1.78,19,4,7.6,4.63,15.89,25.61,27,27,7.81-5,18.71-13,30-17-.2-2.33-.19-2.83-1-4-4.07-10.85-13.21-13.61-18-28,.21-10.29,8.75-16,15-26,12.51-6.32,16.27-10.53,24-15,14.45-8.36,26.54-15.93,41-24,4.67-2.61,6.56-6.8,13-8l7,7c1.44,2.3,8.56,21.78,9,24,1.3,6.59-4,6.79-1,19,5.59,9.95,9.5,11.28,27,10,4.34-6.64,8.26-15,6-26-6-7.82-9.68-8.52-18-8a13.12,13.12,0,0,0-7,3c-1.78-14.8-11.31-20.16-12-36l3-1c10.2-6.59,41.53,2.24,48,6s15.46,5.75,22,10c24.44,15.88,44.76,37.75,65,58,3,3,7,5,10,8,.93.93,1,3.14,2,4,4.18,3.7,11.67,3.42,14,9,.8,1,.35.27,1,2h-4c-3.25-2.36-29.25-3.68-36-2-25.17,6.25-75.37,4.35-94,16,.63,1.75.19,1,1,2,3.7,8.39,12.39,5.26,21,9,27.3,11.86,56.72,17.46,86,28,32.91,11.84,65.79,19.43,102,29,9.34,2.47,23.52,11.73,38,8,13.72-3.53,24.41-11.72,36-17l9-2c19.7-9.85,40.61-20.8,61-30h4c2.38-1,5.58-4.18,8-5,2.67,0,4.33-3,7-3,2-2.33,5-1.67,7-4,3.73-2.51,7.49-2.18,12-4s9.67-6,14-8c8.24-3.73,21-6.48,25-14,5.11-9.53-7.7-19.67-12-24C1304.18,164.09,1276.76,130,1254,130Z" fill-rule="evenodd"/>
    <path d="M854,288c0,2.72,0,4.6,1,6,3,9.27,14,14.39,20,21,2.64,2.88,3.39,7.07,6,10,5.71,6.41,14.19,11.66,20,18,5.12,5.59,7.92,12.35,14,17,3.93,3,19.88,14.24,23,13,11.44-3.47,25.58-11,36-15,6.54-2.53,12.62-1.93,19-5,9.34-4.49,21.51-9.78,31-14,8.55-3.81,20.8-2,24-11h-1c-1.12-2.87-.17-1.84-3-3-3.41-2.85-6.63-1.5-12-3-7.13-2-17.36-5.72-24-8-5.53-1.9-10.65-.69-16-3C954.87,295,906.8,288.27,854,288Z" fill="none" fill-rule="evenodd"/>
    <path d="M672,362c.2,2.33.19,2.83,1,4,3,9.34,16.24,22,22,30,8.88,12.31,14.83,25.27,25,36,13.88.27,24-3.39,34-6,6.94-1.8,11.41-.18,18-2,11.69-3.22,24-6.09,38-9a10.92,10.92,0,0,1,2-3c-.63-1.75-.19-1-1-2-3.8-8.73-20.56-10.64-29-15-7.4-3.82-15.84-6.9-24-11-3.76-1.89-8-5.54-12-7-4.88-1.76-7.51-.12-12-2-2.11-.89-5.34-3-8-4l-10-1C702.79,366.45,688.27,362.15,672,362Z" fill="none" fill-rule="evenodd"/>
    <path d="M500,396c-1.44,2.06-1.55,1.3-2,5,11.45,10,16.88,24.63,27,36,1.48,1.66,4.48,2.36,6,4,1.73,1.88,2.63,5.94,5,7h16c5.6,4,39.79,2.67,48,1v-4c-8.25-2.38-14.31-8.37-21-12C553.44,419.13,530.68,404.64,500,396Z" fill="none" fill-rule="evenodd"/>
  </g>
  <g id="sole1" class="g_to_interact_with" style="isolation: isolate">
    <path d="M1382,374l8,1c3.22,4.65,10.11,6.51,13,11,5.36,8.32,3.71,21.06,3,30-7.79,5.15-10.55,14.42-16,22-4.14,5.75-11.71,8.29-17,13-3.79,3.38-6.58,9.35-11,12-18.34,11-43.87,13.82-66,21-8.25,2.68-42-.48-48-2h-18c-1.65-.54-4.35-3.46-6-4h-14c-4.87-.06-8.51-1.36-12-2-5-.91-16.29,1.92-24,0-5.66-1.41-17.25-3.63-22-3-3.85.51-12.61,2.33-18,1-13.2-3.26-39.14-6-50-4h-46c-13.38,3.37-28.82,2.91-46,4-7.13.45-13.92-2.59-24,0-5.67,1.45-12.61,4.6-18,6H932c-43.56,11.1-85.08,20.77-128,32-23.64,6.18-48.12,4.41-70,12-7.17,2.49-16.14,7.89-24,10H700c-16.09,4.21-37.22,7.71-54,12H636c-14.57,3.67-35,4.21-50,8H564c-6.3,1.56-19.71,2.41-26,4H514c-14.31,0-25.43,1.32-36,4H451c-25.89,0-46.84-.87-67-6H374c-8.3-2.11-20.1-4-28-6H328c-3.34-.85-8.66-3.15-12-4-7.75-2-18.31-.56-24-2H280c-13.43-3.41-28.88-4.25-42-9-3.37-1.22-8.28-4-12-5-11.42-3.17-18.33.48-28-3l-12-2c-15.2-6.65-43.36-19.85-46-38,.8-1,.35-.27,1-2a28.89,28.89,0,0,1,9-1c5.13,3.64,24,12.11,30,14,6.33,2,10.4.79,16,3,2.55,1,5.19,4.16,8,5h28c10.38,2.66,21.35,6.42,32,9,10,2.42,21.8.9,30,3,13.65,3.5,32.47-1.59,46,2,4.29,1.14,8.07,4.83,12,6h14c9.67,2.42,26.09-1,38,2,17.16,4.26,52.85,4.39,70,0h24c6.22-1.59,17.69.14,26-2,7.31-1.88,18.39-4.54,26-6,3.15-.6,4.82,1.48,8,1,15.74-2.36,37-5.15,52-9h14c36.14-9.35,75.7-18.85,110-30h11l11-2c6,1.26,7.51,4.34,16,2a514.15,514.15,0,0,0,66-23l34-7c26.53-9.14,61.6-14.66,90-22h46c13.76-4.25,41.92-2,62-2,24.06,0,47.09-.35,64,4,10.87,2.8,27.83-1.31,38,2,1.65.54,4.35,3.46,6,4h18c27.62,6.89,77.55,8,104,0,8-2.42,29.16-12,35-17,1.77-1.52,3.07-4.67,5-6,5.13-3.54,11-5.46,15-10,2.9-3.28,3.11-8.72,6-12C1367.15,386,1375.54,380.72,1382,374Z" fill-rule="evenodd"/>
  </g>
  <g id="shadow">
    <image id="image" width="1504" height="736" xlink:href="shoe1.png"/>
  </g>
</svg>
